<?xml version="1.0" encoding="utf-8"?>
<!-- Generator: Adobe Illustrator 26.0.0, SVG Export Plug-In . SVG Version: 6.00 Build 0)  -->
<svg version="1.1" id="Layer_1" xmlns="http://www.w3.org/2000/svg" xmlns:xlink="http://www.w3.org/1999/xlink" x="0px" y="0px"
	 viewBox="0 0 497 941" style="enable-background:new 0 0 497 941;" xml:space="preserve">
<style type="text/css">
	.st0{clip-path:url(#SVGID_00000158016623958167791260000007486503479207461526_);}
	.st1{fill:#FFF6D3;}
</style>
<g>
	<defs>
		<rect id="SVGID_1_" x="-0.54" y="0.03" width="507.61" height="941.42"/>
	</defs>
	<clipPath id="SVGID_00000052791748109088981590000006506374923437355946_">
		<use xlink:href="#SVGID_1_"  style="overflow:visible;"/>
	</clipPath>
	<g style="clip-path:url(#SVGID_00000052791748109088981590000006506374923437355946_);">
		<path class="st1" d="M525.23,630.02c-1.17-4.22-3.52-8.2-5.5-12.16c-2.22-4.43-4.15-8.6-7.33-12.56
			c-12.21-15.23-26.75-26.86-45.15-36.83c-15.89-8.61-34.48-14.39-52.36-19.35c-14.33-3.98-29.06-6.85-43.91-9.1
			c-32.41-4.91-65.23-7.42-97.89-10.84c-58.24-7.11-115.23-20.18-169.73-38.86c-13.82-5.08-27.47-10.47-40.89-16.26
			c-1.5-0.65-3.02-1.3-4.53-1.95c2.56-1.11,5.16-2.17,7.78-3.2c31.48-10.29,64.84-17.01,98.21-21.28
			c89.09-8.5,190.97,4.5,263.99-48.14c3.14-2.26,6.01-4.74,8.66-7.41c5.61-5.64,11.51-11.59,15.7-18.13
			c9.07-14.15,12.9-27.06,14.81-42.85c0.7-5.77-0.12-10.85-1.04-16.65c-0.91-5.71-1.56-10.89-4-16.22
			c-6.29-13.72-14.51-26.72-28.13-36.38c-12.68-8.99-24.31-14.79-39.32-20.13c-10.6-3.77-21.26-7.02-32.28-9.83
			c-19.67-5.02-39.73-8.93-59.93-12.13c-47.25-7.5-95.16-11.58-142.82-16.77c-16.59-1.94-33.14-4.07-49.6-6.69
			c-10.82-1.72-21.76-3.47-32.47-5.84c9.29-2.65,18.83-4.56,28.51-5.95c22.59-1.91,45.31-1.78,68.01-1.9
			c30.15-0.15,60.33-0.64,90.4-2.61c34.52-2.26,69.28-5.98,102.97-12.82c14.32-2.91,28.56-6.37,42.36-10.73
			c21.37-6.74,41.64-14.55,57.88-28.53c18.44-15.88,30.02-37.55,30.18-59.9c0.15-20.71-10.65-42.89-29.5-56.46
			C453.07,0.6,435.2-7.39,415.21-10.08c-17.51-2.35-33.78-3.07-51.38-2.66c-63.77,1.49-127.31,6.46-190.92,10.27
			C101.77,1.8,30.32,4.54-40.87-0.5c-15.11-1.07-33.66,6.62-44.04,15.37c-10.8,9.1-18.94,24.03-18.24,37.1
			c0.72,13.57,6.01,27.65,18.24,37.1c12.75,9.86,26.78,14.15,44.04,15.37c13.86,0.98,27.72,1.66,41.58,2.1
			c-9.06,4.84-17.65,10.39-25.71,16.83c-25.92,20.72-41.49,50.03-36.67,80.26c2.15,13.49,6.83,26.67,16.14,38.04
			c11.14,13.6,23.66,24.13,40.32,33.01c21.37,11.4,46.83,16.83,71.35,21.05c51.91,8.94,104.79,13.2,157.29,18.97
			c32.53,3.78,65.69,8.22,97.42,15.96c-9.38,2.2-18.95,3.84-28.57,5.15c-23.86,2.22-47.87,2.76-71.86,3.53
			c-31.87,1.02-63.42,3.46-94.93,7.79c-26.69,3.67-53.05,9.1-78.7,16.32c-26.33,7.41-53.3,16.37-75.54,30.66
			c-17.38,11.17-31.21,21.79-43.47,37.35c-5.52,7-9.35,15.09-12.53,22.99c-5.27,13.1-4.65,26.45-1.9,39.82
			c4.44,21.58,22.59,37.64,42.95,49.75c10,5.95,21.1,10.76,31.88,15.62C37.56,581.92,90.17,600.07,144,613.1
			c27.41,6.63,55.29,11.89,83.45,15.71c30.57,4.16,61.38,6.67,92.08,9.94c23.68,2.92,47.18,6.93,69.68,13.8
			c-2.27,1.6-4.57,3.17-6.87,4.72c-78.96,49.67-175.2,73.59-261.01,113.08C74.7,791.8,29.16,818.75-4.83,853.5
			c-6.81,6.96-14.15,13.95-19.6,21.71c-13.51,19.22-13.63,44.29-0.14,63.55c12,17.13,32.76,29.06,51.48,40.44
			c23.41,14.22,48.91,25.73,75.37,35.34c34.89,12.67,70.38,23.13,107.13,31.29c32.28,7.16,64.95,12.96,97.62,18.65
			c16.47,2.87,33.14,2.03,47.99-5.29c12.92-6.37,25.24-18.85,28.62-31.36c2.39-8.85,2.85-18.41,0.28-27.31
			c0.29-9.87-2.41-20.33-8.34-28.08c-8.57-11.2-21.34-21.07-37.22-24.11c-9.3-1.78-20.35-2.52-30.51-0.91
			c-6.92-6.5-13.18-13.59-19.67-20.25c-9.33-9.59-18.82-19.08-28-28.77c-3.77-4.39-7.29-8.91-10.32-13.67
			c-0.23-0.65-0.46-1.3-0.67-1.96c-0.02-1.58,0.03-3.16,0.13-4.75c3.97-17.46,10.82-34.69,18.48-51.25
			c27.22-10.24,54.58-20.22,81.22-31.11c43.22-17.68,83.6-38.31,120.92-63.9c8.07-5.54,15.93-11.35,23.32-17.52
			c15.05-12.57,29.37-29,32.67-47.07C528.35,653.92,528.91,643.29,525.23,630.02z M125.46,892.55c0.84,5.89,2.02,11.35,3.63,16.65
			c-5.39-2.46-10.71-5.02-15.95-7.69C117.16,898.43,121.28,895.46,125.46,892.55z"/>
		<g>
			<g>
				<path class="st1" d="M191.41,518.18c-10.04-2.55-19.84-5.83-29.39-9.83c3.11,1.31,6.21,2.62,9.32,3.93
					c-16.06-6.88-31.11-15.7-44.97-26.33c2.63,2.03,5.26,4.07,7.89,6.1c-10.31-8.05-20.27-16.96-28.46-27.19
					c2.03,2.63,4.07,5.26,6.1,7.89c-2.74-3.59-5.13-7.3-7.01-11.42c1.31,3.11,2.62,6.21,3.93,9.32c-1.03-2.53-1.79-5.03-2.27-7.72
					c0.46,3.46,0.93,6.91,1.39,10.37c-0.26-2.17-0.31-4.22-0.13-6.4c-0.46,3.46-0.93,6.91-1.39,10.37c0.32-2.13,0.82-4.09,1.54-6.12
					c-1.31,3.11-2.62,6.21-3.93,9.32c1.46-3.44,3.36-6.46,5.62-9.44c-2.03,2.63-4.07,5.26-6.1,7.89c5.37-6.7,11.6-12.62,18.35-17.93
					c-2.63,2.03-5.26,4.07-7.89,6.1c8.15-6.23,16.96-11.36,26.4-15.39c-3.11,1.31-6.21,2.62-9.32,3.93
					c7.49-3.07,15.18-5.38,23.13-6.91c-6.91-25.07-13.82-50.14-20.74-75.21c-29.25,7.58-49.41,30.91-59.22,58.54
					c-9.3,26.17-4.62,55.55,8.42,79.5c12.12,22.27,32.72,40.55,54.75,52.68c23.56,12.97,49.66,20.09,75.45,27.03
					c27.76,7.46,54.72,16.93,81.21,28.08c-3.11-1.31-6.21-2.62-9.32-3.93c23.09,9.78,45.76,20.48,68.42,31.21
					c9.65,4.57,19.42,6.86,30.05,3.93c9.05-2.49,18.85-9.49,23.31-17.92c4.78-9.05,7.18-20.02,3.93-30.05
					c-2.97-9.18-8.86-19.02-17.92-23.31c-35.58-16.85-71.32-33.62-108.28-47.27c-16.93-6.26-34.14-11.51-51.56-16.19
					c-17.43-4.68-34.91-9.28-51.59-16.28c3.11,1.31,6.21,2.62,9.32,3.93c-10.72-4.62-20.82-10.23-30.08-17.36
					c2.63,2.03,5.26,4.07,7.89,6.1c-6.3-4.99-12.02-10.54-17.03-16.82c2.03,2.63,4.07,5.26,6.1,7.89
					c-4.23-5.5-7.76-11.35-10.5-17.72c1.31,3.11,2.62,6.21,3.93,9.32c-1.96-4.85-3.43-9.8-4.23-14.98
					c0.46,3.46,0.93,6.91,1.39,10.37c-0.68-5.25-0.66-10.46-0.01-15.71c-0.46,3.46-0.93,6.91-1.39,10.37
					c0.76-5.24,2.12-10.27,4.11-15.18c-1.31,3.11-2.62,6.21-3.93,9.32c1.89-4.38,4.22-8.46,7.08-12.29
					c-2.03,2.63-4.07,5.26-6.1,7.89c2.63-3.34,5.57-6.3,8.93-8.91c-2.63,2.03-5.26,4.07-7.89,6.1c2.74-2,5.6-3.67,8.71-5.04
					c-3.11,1.31-6.21,2.62-9.32,3.93c2-0.81,4.01-1.47,6.09-2.01c19.75-5.12,33.66-28.14,27.24-47.97
					c-3.05-9.44-8.9-18.54-17.92-23.31c-9.69-5.12-19.27-6.01-30.05-3.93c-19.38,3.74-38.85,11.92-54.96,23.35
					c-9.24,6.56-18.32,13.68-25.99,22.07c-9.06,9.91-17.95,21.79-20.91,35.22c-3.86,17.56-0.9,34.58,7.76,50.26
					c5.47,9.89,13.34,18.71,21.33,26.65c14.23,14.14,30.61,26.72,47.92,36.86c19.22,11.26,40.45,20,62.04,25.48
					c9.93,2.52,21.14,1.28,30.05-3.93c8.09-4.73,15.81-14.01,17.92-23.31C223.27,545.89,212.57,523.55,191.41,518.18L191.41,518.18z
					"/>
			</g>
		</g>
		<g>
			<g>
				<path class="st1" d="M339.17,641.76c0.94,0.32,1.86,0.68,2.78,1.06c-2.63-1.11-5.26-2.22-7.88-3.33
					c4.11,1.8,7.87,4.05,11.43,6.78c-2.23-1.72-4.45-3.44-6.68-5.16c3.49,2.84,6.59,5.99,9.39,9.51c-1.72-2.23-3.44-4.45-5.16-6.68
					c3.02,4,5.51,8.24,7.54,12.83c-1.11-2.63-2.22-5.26-3.33-7.88c2.27,5.55,3.77,11.21,4.64,17.14c-0.39-2.92-0.79-5.85-1.18-8.77
					c0.87,7.16,0.78,14.25-0.13,21.4c0.39-2.92,0.79-5.85,1.18-8.77c-0.65,4.35-1.44,8.63-3.09,12.72c1.11-2.63,2.22-5.26,3.33-7.88
					c-0.73,1.49-1.48,2.73-2.46,4.06c1.72-2.23,3.44-4.45,5.16-6.68c-3.99,4.61-9.1,8.22-13.8,12.07
					c-5.38,4.42-10.77,8.83-16.15,13.25c-10.51,8.62-21.03,17.24-31.54,25.87c-6.16,5.05-9.67,15.71-9.67,23.33
					c0,8.09,3.6,17.76,9.67,23.33c6.29,5.77,14.55,10.06,23.33,9.67c9.23-0.41,16.22-3.83,23.33-9.67
					c14.36-11.78,28.72-23.55,43.08-35.33c8.54-7.01,17.24-13.3,23.57-22.54c7.12-10.39,8.97-22.99,10.28-35.21
					c2.19-20.4-2.14-42.34-12.59-60.07c-10.91-18.53-27.46-31.41-47.5-38.69c-7.67-2.79-18.6-0.67-25.43,3.33
					c-6.85,4.01-13.37,11.85-15.17,19.72C311.88,619.77,321.77,635.44,339.17,641.76L339.17,641.76z"/>
			</g>
		</g>
		<g>
			<g>
				<path class="st1" d="M350.94,672.8c-0.66,2.48-1.46,4.87-2.43,7.24c1.11-2.63,2.22-5.26,3.33-7.88
					c-1.67,3.76-3.68,7.24-6.11,10.56c1.72-2.23,3.44-4.45,5.16-6.68c-1.89,2.43-3.93,4.66-6.18,6.76
					c-12.64,11.81-12.83,34.89,0,46.67c13.54,12.43,33.18,12.6,46.67,0c11.16-10.43,19.28-24.38,23.21-39.12
					c4.45-16.66-5.58-36.61-23.05-40.59C374.2,645.81,355.7,654.96,350.94,672.8L350.94,672.8z"/>
			</g>
		</g>
		<g>
			<g>
				<path class="st1" d="M104.91,885.92c-4.82,22.5,2.08,43.56,15.69,61.58c11.36,15.05,23.38,29.58,36.06,43.54
					c11.64,12.82,35.01,12.7,46.67,0c12.57-13.7,12.41-33,0-46.67c-10.21-11.25-20-22.87-29.35-34.84c1.72,2.23,3.44,4.45,5.16,6.68
					c-4.57-5.92-8.79-12.03-11.79-18.91c1.11,2.63,2.22,5.26,3.33,7.88c-1.23-3.11-2.13-6.2-2.64-9.51
					c0.39,2.92,0.79,5.85,1.18,8.77c-0.22-2.19-0.24-4.29-0.06-6.49c-0.39,2.92-0.79,5.85-1.18,8.77c0.12-1.1,0.32-2.19,0.59-3.27
					c1.86-8.67,1.25-17.62-3.33-25.43c-4.01-6.85-11.85-13.37-19.72-15.17C128.9,859.09,108.78,867.87,104.91,885.92L104.91,885.92z
					"/>
			</g>
		</g>
		<g>
			<g>
				<path class="st1" d="M257.6,920.85c-0.43-0.05-0.87-0.1-1.3-0.16c2.92,0.39,5.85,0.79,8.77,1.18c-0.41-0.12-0.82-0.25-1.23-0.37
					c2.63,1.11,5.26,2.22,7.88,3.33c-0.8-0.33-1.55-0.76-2.24-1.29c2.23,1.72,4.45,3.44,6.68,5.16c-1.07-0.92-1.94-1.82-2.83-2.91
					c1.72,2.23,3.44,4.45,5.16,6.68c-3.22-4.46-5.54-9.55-7.74-14.57c1.11,2.63,2.22,5.26,3.33,7.88
					c-4.15-9.84-7.18-20.06-9.89-30.38c-2.79-10.65-5.7-21.35-7.21-32.28c0.39,2.92,0.79,5.85,1.18,8.77
					c-0.82-6.88-0.89-13.66,0.01-20.53c-0.39,2.92-0.79,5.85-1.18,8.77c1.1-7.23,3.15-14.13,5.97-20.87
					c-1.11,2.63-2.22,5.26-3.33,7.88c4.5-10.28,10.54-19.67,17.33-28.57c-1.72,2.23-3.44,4.45-5.16,6.68
					c7.99-10.29,16.86-19.83,25.89-29.22c11.98-12.45,13.31-34.45,0-46.67c-12.96-11.9-33.88-13.29-46.67,0
					c-22.46,23.34-44.16,48.36-54.47,79.63c-6.08,18.44-5.75,37.35-2.52,56.26c2.62,15.33,6.83,30.87,11.72,45.63
					c3.39,10.22,7.46,20.42,12.63,29.88c2.7,4.94,6.11,9.8,10.1,13.74c2.84,2.8,6.37,5.46,9.93,7.32
					c6.43,3.35,12.06,4.18,19.19,5.03c7.81,0.93,18.03-4.36,23.33-9.67c5.72-5.72,10.03-15.11,9.67-23.33
					c-0.38-8.53-3.19-17.39-9.67-23.33C274.06,924.21,266.79,921.95,257.6,920.85L257.6,920.85z"/>
			</g>
		</g>
		<g>
			<g>
				<path class="st1" d="M275.33,754.26c-18.93,8.71-33.01,26.73-42.52,44.76c-11.09,21.04-19.81,43-22.63,66.68
					c-2.75,23.09,5.26,45.36,14.09,66.28c8.48,20.1,19.54,39.36,35.44,54.6c19.7,18.88,44.06,30.28,71.31,32.24
					c17.26,1.24,33.76-16.07,33-33c-0.85-18.94-14.51-31.67-33-33c-1.59-0.11-3.16-0.27-4.74-0.46c2.92,0.39,5.85,0.79,8.77,1.18
					c-5.78-0.86-11.32-2.4-16.75-4.56c2.63,1.11,5.26,2.22,7.88,3.33c-6.91-2.92-13.26-6.71-19.21-11.26
					c2.23,1.72,4.45,3.44,6.68,5.16c-6.45-5.11-12.1-10.91-17.19-17.38c1.72,2.23,3.44,4.45,5.16,6.68
					c-7.71-10.11-13.71-21.23-18.7-32.9c1.11,2.63,2.22,5.26,3.33,7.88c-4.77-11.41-9.32-23.3-11.25-35.57
					c0.39,2.92,0.79,5.85,1.18,8.77c-0.77-6.03-0.71-11.97,0-18c-0.39,2.92-0.79,5.85-1.18,8.77c1.55-10.91,5.09-21.26,9.36-31.39
					c-1.11,2.63-2.22,5.26-3.33,7.88c5.22-12.13,10.9-24.24,18.95-34.79c-1.72,2.23-3.44,4.45-5.16,6.68
					c3.11-3.91,6.49-7.47,10.37-10.63c-2.23,1.72-4.45,3.44-6.68,5.16c3.17-2.44,6.5-4.47,10.13-6.14
					c7.09-3.26,13.18-12.5,15.17-19.72c2.18-7.9,1.19-18.42-3.33-25.43c-4.54-7.05-11.31-13.25-19.72-15.17
					C291.63,748.86,283.8,750.37,275.33,754.26L275.33,754.26z"/>
			</g>
		</g>
	</g>
</g>
</svg>
