<svg id="Layer_1" data-name="Layer 1" xmlns="http://www.w3.org/2000/svg" viewBox="0 0 644.46 1058.97"><defs><style>.cls-1{fill:#fff6d3;}</style></defs><title>wave03</title><path class="cls-1" d="M67.39,123.07q77.1-.85,154.19-.95c49.81-.05,99.65.12,149.39,2.93,28.35,1.61,56.64,4.1,84.79,7.84l-14.89-2c16.62,2.25,33.17,4.91,49.62,8.15,13,2.55,26,5.12,38.23,10.27l-13.38-5.65a73.39,73.39,0,0,1,14.77,8.42l-11.33-8.75a45.93,45.93,0,0,1,7.85,7.79l-8.75-11.34a36.8,36.8,0,0,1,4.17,7.32l-5.64-13.38a36.09,36.09,0,0,1,1.91,7.22l-2-14.88a35.63,35.63,0,0,1,.09,7.3l2-14.88a38.39,38.39,0,0,1-2.71,9.79l5.65-13.38a47.61,47.61,0,0,1-5.41,8.87l8.76-11.34a54.06,54.06,0,0,1-8.61,8.43l11.33-8.76a63.11,63.11,0,0,1-12.59,7.09l13.37-5.65c-11.18,4.5-23,6.35-34.92,8l14.89-2q-81.24,10.86-162.5,21.64L263.8,152c-30.42,4-61,7.44-91.31,12.37-11.54,1.88-23.05,4.31-34.06,8.31a212.78,212.78,0,0,0-27.71,12c-8.72,4.68-16.81,11.12-24.34,17.4A83.1,83.1,0,0,0,75.6,212.86c-6,7.23-12.29,14.85-16.61,23.29C54.81,244.31,50.85,253,48.66,262c-2.23,9.16-3.82,19.24-3.37,28.74.44,9.27,1.46,18.94,4.5,27.78S56.58,336.84,62,344.67c11,15.84,22.87,27.73,39.16,38.21,27.39,17.63,61.05,22.1,92.82,24,30.63,1.84,61.33,1.11,92,1.59a756.8,756.8,0,0,1,87.32,6.28l-14.89-2a728.62,728.62,0,0,1,184.29,50l-13.38-5.65c9,3.81,18.19,7.51,26.17,13.29l-11.33-8.76a46.71,46.71,0,0,1,7.72,7.48l-8.75-11.34a43.62,43.62,0,0,1,5.27,9.12l-5.65-13.37a48.91,48.91,0,0,1,2.74,10.16l-2-14.88a57.44,57.44,0,0,1,0,14.82l2-14.89a66.17,66.17,0,0,1-4.51,16l5.65-13.37a67.64,67.64,0,0,1-7.71,13.14l8.75-11.33a80.06,80.06,0,0,1-13,12.87L546,457.31a123.08,123.08,0,0,1-27.56,15.6l13.37-5.64c-19.48,8-40.15,13.41-60.55,18.53a619.64,619.64,0,0,1-68.06,13.28l14.89-2c-49.95,6.57-100.43,5.46-150.56,9.77-28.51,2.45-57.3,6.07-85.06,13.22-15.37,3.95-29.85,9.48-44.41,15.82-14.39,6.27-26.41,14.72-38.63,24.63-26.68,21.67-42.61,55.76-44.07,89.83C53.82,685.52,72.89,717.49,96.4,742c35.73,37.29,84.68,59.55,133.5,73.94,51.9,15.29,106.24,21.84,156.47,42.69L373,853a153.14,153.14,0,0,1,33.71,19.07l-11.34-8.76a94.33,94.33,0,0,1,15.45,15.1l-8.75-11.34a67.52,67.52,0,0,1,8.54,14.34L405,868a57.49,57.49,0,0,1,3.66,13.51l-2-14.89a57.11,57.11,0,0,1-.14,14.13l2-14.89a66.34,66.34,0,0,1-4.41,15.24l5.65-13.38a82.31,82.31,0,0,1-10,16.6L408.48,873a98.7,98.7,0,0,1-16.61,16.2l11.33-8.76c-12.09,9.14-25.61,15.95-39.34,22.24C349,909.53,334,916.17,319,922.9l-92.67,41.69c-12,5.41-22.38,21.32-25.73,33.47-3.69,13.41-2,31.26,5.64,43.15s19.19,22.49,33.47,25.74l14.89,2a55.66,55.66,0,0,0,28.26-7.65l117.86-53c17.62-7.92,35.78-15.34,51.93-26.07,11.09-7.36,22.38-15.67,31.34-25.63,8.64-9.59,17.07-20.4,22.4-32.28,7.38-16.44,12.16-31.46,12.61-49.82.36-15.1-3.11-29.21-8.89-42.9s-12.9-24.33-22.84-35.63c-7.91-9-18-16.33-27.62-23.23-17.69-12.65-38.72-20.79-59-28.07-18.86-6.76-38.25-11.87-57.72-16.48-41.46-9.83-83.57-17.64-123-34.25l13.38,5.64c-17.73-7.57-34.67-16.81-50-28.51l11.33,8.76a162.6,162.6,0,0,1-28.7-28.19l8.76,11.33a89.42,89.42,0,0,1-10.39-17.18l5.65,13.38a61.22,61.22,0,0,1-4.13-14.27l2,14.89a57.76,57.76,0,0,1-.05-14.09l-2,14.89a67,67,0,0,1,4.69-16.65l-5.65,13.38a79.77,79.77,0,0,1,8.95-15.1L165,653.52a87,87,0,0,1,14.94-14.83l-11.34,8.76a123.94,123.94,0,0,1,26-14.85l-13.38,5.65c23.84-10,49.62-15.13,75.13-18.58l-14.89,2c29.86-3.93,60-5.12,90-6.34,34.68-1.41,69-3.72,103.41-8.51a665.81,665.81,0,0,0,90.36-19.51,412,412,0,0,0,49.71-17.69c15.8-6.75,29.59-16,42.54-27.38,15.63-13.74,25.25-31.17,32.54-50.3,7.2-18.88,7-39.74,3.28-59.29-3.57-18.74-15.06-38.19-29.93-50.16-9-7.25-17.16-13.12-27.56-17.77s-21.22-9.14-31.91-13.47a722.25,722.25,0,0,0-172-46,893,893,0,0,0-114.8-8.89c-34.68-.32-69.88,1.14-104.35-3.45l14.89,2A131.16,131.16,0,0,1,156.84,287l13.38,5.64a83.31,83.31,0,0,1-17.36-9.9l11.33,8.76a72.56,72.56,0,0,1-12.51-12.38l8.76,11.34A60.63,60.63,0,0,1,153.17,278l5.65,13.38a53.26,53.26,0,0,1-3.1-11.14l2,14.89a52.08,52.08,0,0,1,0-13.26l-2,14.88A59.93,59.93,0,0,1,159.16,284l-5.64,13.38a70.68,70.68,0,0,1,9.08-15.5l-8.75,11.34a82.22,82.22,0,0,1,12.92-12.92l-11.34,8.75a95,95,0,0,1,21.28-12.14l-13.38,5.65c17.47-7.07,36.09-10,54.65-12.48l-14.88,2q98.4-13.2,196.83-26.21l98.65-13.14c18-2.4,37.24-3.51,54.64-9.44,10.08-3.43,20.66-7.51,29.52-13.62a113.27,113.27,0,0,0,31.69-31.83c13.87-20.25,18.15-49.52,10.41-72.78-7.63-22.93-22.9-40.86-43.5-53.33C554.57,35.57,522,30.79,491.69,26,424.08,15.23,356,11.24,287.58,10.39c-73.38-.91-146.81-.13-220.19.68A58,58,0,0,0,27.8,27.47c-9.72,9.72-17,25.65-16.41,39.6C12,81.55,16.8,96.58,27.8,106.67s24.48,16.57,39.59,16.4Z" transform="translate(-11.36 -9.98)"/></svg>