<?xml version="1.0" encoding="utf-8"?>
<!-- Generator: Adobe Illustrator 26.0.0, SVG Export Plug-In . SVG Version: 6.00 Build 0)  -->
<svg version="1.1" id="Layer_1" xmlns="http://www.w3.org/2000/svg" xmlns:xlink="http://www.w3.org/1999/xlink" x="0px" y="0px"
	 viewBox="0 0 491 638" style="enable-background:new 0 0 491 638;" xml:space="preserve">
<style type="text/css">
	.st0{clip-path:url(#SVGID_00000044868645497167375990000003666338597690321542_);fill:#FFF5D2;}
</style>
<g>
	<defs>
		<rect id="SVGID_1_" x="-0.1" y="-0.08" width="491.59" height="637.74"/>
	</defs>
	<clipPath id="SVGID_00000080172565325929894700000010938710407534522005_">
		<use xlink:href="#SVGID_1_"  style="overflow:visible;"/>
	</clipPath>
	<path style="clip-path:url(#SVGID_00000080172565325929894700000010938710407534522005_);fill:#FFF5D2;" d="M532.12,588.38
		c-3.23-24.01-23.81-43.02-48.62-42.92c-39.81,0.16-79.63,0.56-119.45,0.78c-9.43-0.9-18.85-1.93-28.25-3.11
		c-32.43-4.57-64.63-10.72-96.43-18.56c-16.58-4.08-33.05-8.61-49.38-13.58c-5.13-1.56-10.29-3.12-15.44-4.73
		c7.83-2.33,15.71-4.47,23.52-6.65c17.54-4.9,35.19-9.39,52.94-13.47c33.45-7.69,67.22-13.87,101.21-18.64
		c17.13-2.15,34.29-3.86,51.48-5.48c12.1-1.14,24.96-2.03,36.44-6.43c7.43-2.85,14.99-5.69,21.4-10.47
		c10.18-7.59,15.99-13.11,23.38-23.56c3.14-4.44,5-9.02,7.13-14.07c2.23-5.28,4.26-10.12,5.22-15.76
		c2.7-15.79,2.94-29.18-0.71-44.97c-1.69-7.31-5.03-14.44-8.18-21.15c-1.77-3.77-3.88-7.3-6.29-10.69
		c-6.88-9.68-14.26-18.79-23.56-26.2c-9.61-7.65-19.21-14.87-29.96-20.79c-10.63-5.86-21.83-10.58-33.07-15.14
		c-15.65-6.35-31.93-10.91-48.51-14.05c-37.65-7.12-75.84-8.91-114.06-9.26c-37.68-0.35-75.5,0.15-112.97-4.27
		c-12.97-1.96-25.95-4.52-38.32-8.87c-1.65-0.83-3.27-1.71-4.86-2.64c2.8-1.55,5.67-2.98,8.59-4.33
		c22.86-8.89,46.73-14.59,70.96-18.25c85.75-10.26,173.18-0.41,257.82-21.05c10.34-2.52,20.57-5.55,30.59-9.16
		c19.71-7.1,39.96-15.09,50.83-34.48c5.97-10.66,8.99-21.68,8.87-33.96c-0.13-13.49-4.36-24.67-9.93-36.67
		c-5.3-11.42-13.38-21.75-21.55-31.17c-13.59-15.67-31.85-28.59-50.7-37.18c-20.03-9.13-40.16-15.95-61.98-18.97
		c-15.66-2.17-31-3.73-46.81-3.69c-13.55,0.03-27.09,0.84-40.6,1.83c-27.04,1.98-54.08,4.64-81.23,3.6
		c-12.38-0.48-26.36,5.86-35,14.5c-8.59,8.59-15.05,22.67-14.5,35c1.24,27.67,21.75,48.43,49.5,49.5
		c49.72,1.91,99.5-9.2,149.12-4.23c11.37,1.93,22.55,4.82,33.37,8.83c1.8,0.86,3.59,1.74,5.36,2.67c-8.31,1.81-16.69,3.31-25.1,4.59
		c-45.26,5.42-90.95,4.91-136.44,6.59c-50.65,1.87-102.96,6.11-151.02,23.25c-13.95,4.98-28.1,10.43-41.03,17.73
		c-15.72,8.88-28.59,20.68-38.82,35.47c-9.85,14.24-15.16,33.83-13.78,51.08c1.45,18.15,6.65,36.14,17.64,50.9
		c11.21,15.06,24.64,27.98,41.75,36.26c14.08,6.81,28.56,11.99,43.84,15.2c26.5,5.57,53.74,8.37,80.77,9.65
		c17.43,0.82,34.9,0.99,52.37,1.09c1.18,0.85,2.41,1.64,3.69,2.38c-13.96,7.95-28.44,15-43.12,21.61
		c-44.59,14.29-92.69,20.07-132.37,46.58c-11.58,7.74-22.95,16.49-32.53,26.67c-9.45,10.04-18.49,21.51-24.65,33.94
		c-14,28.21-19.62,60.95-9.54,91.52c5.79,17.55,13.99,30.87,25.26,45.18c8.89,11.29,20.03,20.16,31.74,28.44
		c12.11,8.56,26.16,14.4,39.99,19.51c11.33,4.19,23.11,6.98,35,9.01c2.79,0.48,5.6,0.92,8.4,1.36c17.66,6.22,36.95,8.48,55.28,9.84
		c49.83,3.69,100.04,3.79,149.92,1.03c14.1-0.78,28.2-1.81,42.28-3.06c32.41-1.21,64.81-2.87,97.2-4.55
		c12.83-0.66,25.05-4.9,34.41-13.94c2.01-0.39,4.03-0.77,6.04-1.16c11.17-2.19,24.33-12.81,29.58-22.75
		C531.52,609.94,533.63,599.64,532.12,588.38z"/>
</g>
</svg>
