<svg id="visual" viewBox="0 0 1920 150" width="1920" height="150" xmlns="http://www.w3.org/2000/svg" xmlns:xlink="http://www.w3.org/1999/xlink" version="1.1"><path d="M0 33L21.3 28.5C42.7 24 85.3 15 128 24.7C170.7 34.3 213.3 62.7 256 74C298.7 85.3 341.3 79.7 384 72.2C426.7 64.7 469.3 55.3 512 65.8C554.7 76.3 597.3 106.7 640 108.8C682.7 111 725.3 85 768 83C810.7 81 853.3 103 896 113.5C938.7 124 981.3 123 1024 120.5C1066.7 118 1109.3 114 1152 104.5C1194.7 95 1237.3 80 1280 79.8C1322.7 79.7 1365.3 94.3 1408 102.2C1450.7 110 1493.3 111 1536 108.3C1578.7 105.7 1621.3 99.3 1664 95.3C1706.7 91.3 1749.3 89.7 1792 96.5C1834.7 103.3 1877.3 118.7 1898.7 126.3L1920 134L1920 0L1898.7 0C1877.3 0 1834.7 0 1792 0C1749.3 0 1706.7 0 1664 0C1621.3 0 1578.7 0 1536 0C1493.3 0 1450.7 0 1408 0C1365.3 0 1322.7 0 1280 0C1237.3 0 1194.7 0 1152 0C1109.3 0 1066.7 0 1024 0C981.3 0 938.7 0 896 0C853.3 0 810.7 0 768 0C725.3 0 682.7 0 640 0C597.3 0 554.7 0 512 0C469.3 0 426.7 0 384 0C341.3 0 298.7 0 256 0C213.3 0 170.7 0 128 0C85.3 0 42.7 0 21.3 0L0 0Z" fill="#154f8f" stroke-linecap="round" stroke-linejoin="miter"></path></svg>